<svg xmlns="http://www.w3.org/2000/svg" xmlns:xlink="http://www.w3.org/1999/xlink" viewBox="0 0 3770.87 2427.12"><defs><style>.cls-1{fill:#c2c1c0;}.cls-2{fill:#9fddf9;}.cls-3{fill:#1c4482;stroke:#1d437e;}.cls-10,.cls-11,.cls-12,.cls-13,.cls-14,.cls-15,.cls-17,.cls-19,.cls-21,.cls-23,.cls-25,.cls-27,.cls-29,.cls-3,.cls-31,.cls-33,.cls-5,.cls-7,.cls-8{stroke-miterlimit:10;}.cls-4{fill:#4cb749;}.cls-5{fill:#9b9a9a;}.cls-10,.cls-11,.cls-12,.cls-13,.cls-14,.cls-15,.cls-17,.cls-5,.cls-7,.cls-8{stroke:#231f20;}.cls-6{fill:#a3dcf7;}.cls-7{fill:#3571b8;}.cls-9{fill:#1c439c;}.cls-10{fill:#25b34b;}.cls-11{fill:#b74398;}.cls-12{fill:#1e427f;}.cls-13{fill:#d71f26;}.cls-14{fill:#535454;}.cls-15,.cls-18{fill:#fff;}.cls-16{fill:#4a494a;}.cls-17{fill:#1c4699;}.cls-19,.cls-21,.cls-23,.cls-25,.cls-27,.cls-29,.cls-31,.cls-33{stroke:#f1f2f2;stroke-width:5px;}.cls-19{fill:url(#linear-gradient);}.cls-20{fill:url(#linear-gradient-2);}.cls-21{fill:url(#linear-gradient-3);}.cls-22{fill:url(#linear-gradient-4);}.cls-23{fill:url(#linear-gradient-5);}.cls-24{fill:url(#linear-gradient-6);}.cls-25{fill:url(#linear-gradient-7);}.cls-26{fill:url(#linear-gradient-8);}.cls-27{fill:url(#linear-gradient-9);}.cls-28{fill:url(#linear-gradient-10);}.cls-29{fill:url(#linear-gradient-11);}.cls-30{fill:url(#linear-gradient-12);}.cls-31{fill:url(#linear-gradient-13);}.cls-32{fill:url(#linear-gradient-14);}.cls-33{fill:url(#linear-gradient-15);}.cls-34{fill:url(#linear-gradient-16);}.cls-35{opacity:0.31;}.cls-36{fill:#4bb749;}</style><linearGradient id="linear-gradient" x1="1439.37" y1="2131.97" x2="1439.37" y2="1841.06" gradientUnits="userSpaceOnUse"><stop offset="0" stop-color="#44a9e0"/><stop offset="1" stop-color="#2d73ba"/></linearGradient><linearGradient id="linear-gradient-2" x1="1437.23" y1="2120.76" x2="1437.23" y2="1852.27" gradientUnits="userSpaceOnUse"><stop offset="0" stop-color="#4481c3"/><stop offset="0.03" stop-color="#41baec"/><stop offset="1" stop-color="#2d73ba"/></linearGradient><linearGradient id="linear-gradient-3" x1="1649.94" y1="2062.21" x2="1649.94" y2="1859.27" xlink:href="#linear-gradient"/><linearGradient id="linear-gradient-4" x1="1653.74" y1="2049.47" x2="1653.74" y2="1870.48" xlink:href="#linear-gradient-2"/><linearGradient id="linear-gradient-5" x1="1889.38" y1="2049.93" x2="1889.38" y2="1858.86" xlink:href="#linear-gradient"/><linearGradient id="linear-gradient-6" x1="1890.43" y1="2038.35" x2="1890.43" y2="1870.07" xlink:href="#linear-gradient-2"/><linearGradient id="linear-gradient-7" x1="2051.66" y1="2050.32" x2="2051.66" y2="1858.95" xlink:href="#linear-gradient"/><linearGradient id="linear-gradient-8" x1="2051.48" y1="2038.75" x2="2051.48" y2="1870.18" xlink:href="#linear-gradient-2"/><linearGradient id="linear-gradient-9" x1="2182.34" y1="2059.2" x2="2182.34" y2="1859.24" xlink:href="#linear-gradient"/><linearGradient id="linear-gradient-10" x1="2182.34" y1="2047.99" x2="2182.34" y2="1870.45" xlink:href="#linear-gradient-2"/><linearGradient id="linear-gradient-11" x1="2406.07" y1="2130.44" x2="2406.07" y2="1841.06" xlink:href="#linear-gradient"/><linearGradient id="linear-gradient-12" x1="2406.07" y1="2119.23" x2="2406.07" y2="1852.27" xlink:href="#linear-gradient-2"/><linearGradient id="linear-gradient-13" x1="1822.04" y1="2296.24" x2="1822.04" y2="2084.49" xlink:href="#linear-gradient"/><linearGradient id="linear-gradient-14" x1="1822.65" y1="2286.79" x2="1822.65" y2="2092.44" xlink:href="#linear-gradient-2"/><linearGradient id="linear-gradient-15" x1="2025.36" y1="2300.35" x2="2025.36" y2="2080.37" xlink:href="#linear-gradient"/><linearGradient id="linear-gradient-16" x1="2024.78" y1="2290.94" x2="2024.78" y2="2088.32" xlink:href="#linear-gradient-2"/></defs><g id="Layer_2" data-name="Layer 2"><path class="cls-1" d="M3113.72,1275.32a59.34,59.34,0,0,0-59.46-59.22,60.36,60.36,0,0,0-11.25,1.06,99.27,99.27,0,0,0-165.89-52.57,84.45,84.45,0,0,0-98.11,51.58,59.21,59.21,0,0,0,2.85,118.37h273.21A59.33,59.33,0,0,0,3113.72,1275.32Z"/><path class="cls-1" d="M1207,705.42a59.35,59.35,0,0,0-59.47-59.22,60.33,60.33,0,0,0-11.24,1.06A99.26,99.26,0,0,0,970.41,594.7a84.41,84.41,0,0,0-98.12,51.57,59.22,59.22,0,0,0,2.85,118.38h273.21A59.35,59.35,0,0,0,1207,705.42Z"/><path class="cls-1" d="M2800.39,372.74a59.49,59.49,0,0,0-70.72-58.16A99.25,99.25,0,0,0,2563.79,262a84.41,84.41,0,0,0-98.12,51.57A59.22,59.22,0,0,0,2468.52,432h273.21A59.34,59.34,0,0,0,2800.39,372.74Z"/><path class="cls-2" d="M2918.34,953.83q-.77-4.26-1.58-8.5c-.36-1.91-.74-3.8-1.11-5.7-.25-.12-.5-.26-.73-.4a8.52,8.52,0,0,1-6.45-7.68c-.72-9.23-7.64-17.14-8.74-26.52a29.06,29.06,0,0,1-.08-5.51c-2.91-6.44-5.36-13-6-20.15a8.14,8.14,0,0,1-4.33-5.07c-6.36-19.8-19.66-36.5-27.91-55.51a91.58,91.58,0,0,1-7.33-29.16c-1-11.9.44-23.42-3.61-34.92a7.08,7.08,0,0,1,.35-6.08c-2-5-5.18-9.43-7.57-14.35a40.33,40.33,0,0,1-2.7-7.54c-1.93-2.42-3.91-4.81-5.77-7.28-4.24-5.61-7.93-11.61-10-18.31-.13-.42-.23-.86-.34-1.29a10.7,10.7,0,0,1-5-3.69c-2.75-3.68-5.53-7.61-6.69-12.06a9,9,0,0,1,.09-11.28,48.1,48.1,0,0,1-3.93-5.3c-4.27-6.88-8.9-13.37-13.75-19.89-7.22-9.69-14.35-19.41-20.41-29.78a63.55,63.55,0,0,1-3.63-6.25,9,9,0,0,1-.53-1.31l-.1-.18c-2.24-4.4-.37-8.55,2.81-10.9-177-262-484.08-435.25-833.3-435.25-322.62,0-609.31,147.88-790.67,377a941.06,941.06,0,0,0-146.38,261,9.61,9.61,0,0,1,7,.69,8.36,8.36,0,0,1,3.16,11.58l-.32.47h0c-.07.5-.26,1-.36,1.5-.19,1-.31,2-.51,3a28.92,28.92,0,0,1-2.71,7.09c-2.07,4.13-7.74,5-11.67,3.19a10.07,10.07,0,0,1-1.78.16,10.31,10.31,0,0,1-2.36-.28,919.6,919.6,0,0,0-46.36,289c0,222.22,79,426.69,211.54,588.88q6.6,8.08,13.37,16c182.1,213.31,458.53,349.4,768,349.4A1028.23,1028.23,0,0,0,2256.78,2023a8.9,8.9,0,0,1,5.84-9.54c12-4.57,24.63-7.35,36-13.38,7.36-3.9,14.5-7.63,22.49-9.13.36-5.74.83-11.47.91-17.1.13-10.9,17.75-10.9,17.62,0-.05,3.48-.29,7-.57,10.61h4.63a9.18,9.18,0,0,1,2.12.27l2.42-4.39c2.2-4,4.58-7.75,7.06-11.49a8.21,8.21,0,0,1,1-5.63,67.23,67.23,0,0,1,17.56-20.1,10.13,10.13,0,0,1,9.93-1.17c1.71-1.92,3.31-3.72,4.79-5.2,12.45-12.41,22.68-26.29,37.83-36,5.13-3.28,14.12,1,13.26,7.31a50.07,50.07,0,0,1-4.88,15.32c10.89-9.3,24.93-16.35,37.89-22.68,27.46-28.9,55.53-58.4,89.84-79.85,7.71-4.82,16.06,4.49,12.06,11.58q-1.51,2.68-3.08,5.36c31-31.1,61.56-62.66,93-93.4,4.24-4.15,10.75-2.26,13.74,1.63a109.6,109.6,0,0,1,8-10.42c5.33-9.11,11.29-17.55,20.33-22.76h0c13.9-17,22.26-38.52,40.15-52.41,4-9.84,12-17,19.16-25.06a7.45,7.45,0,0,1,9.9-1.63c99.49-148.66,157.24-325.56,157.24-515.46A923.36,923.36,0,0,0,2918.34,953.83Z"/><path class="cls-3" d="M1222.77,1768.37s442.24-249.43,998-198.7,549.08,61.09,549.08,61.09S2538.76,1963.15,2177.2,2045C1824.94,2124.7,1434.46,2031.31,1222.77,1768.37Z"/><path class="cls-3" d="M1229.8,1769.78s442.24-249.43,998-198.7,549.08,61.09,549.08,61.09-231.09,332.38-592.65,414.21C1832,2126.1,1441.49,2032.71,1229.8,1769.78Z"/><path class="cls-4" d="M1109,598.57l-22.78,32.17-82,186.17-4-.14-6.69,12.54,2.94,5.08a1.06,1.06,0,0,0,0,.17l-.18.4a.94.94,0,0,0,0,.16l.17-.28c.65,5.88,8.46,67.7,44.76,43.13,38.1-25.8,57.94-33.17,28.57-45.24S1084,758.52,1084,758.52s52.16-117.46,85.5-119.84S1109,598.57,1109,598.57Z"/><g id="Layer_11" data-name="Layer 11"><polyline class="cls-4" points="1087.84 628.32 1108.71 595.83 1111.56 599.62"/></g><path class="cls-5" d="M1195.58,582.43H1522.4V144.67h831V582.43h314.15l0,1241h-1472c0-10.4,0-16.63,0-27Z"/><g id="Layer_8" data-name="Layer 8"><rect class="cls-6" x="1717.43" y="234.3" width="100.19" height="160.3"/><rect class="cls-6" x="1844.57" y="234.3" width="100.19" height="160.3"/><rect class="cls-6" x="1972.29" y="234.26" width="100.19" height="160.3"/><rect class="cls-6" x="2100.81" y="234.57" width="100.19" height="160.3"/><rect class="cls-6" x="1717.75" y="464.89" width="100.19" height="160.3"/><rect class="cls-6" x="1844.89" y="464.89" width="100.19" height="160.3"/><rect class="cls-6" x="1972.61" y="464.86" width="100.19" height="160.3"/><rect class="cls-6" x="2101.13" y="465.16" width="100.19" height="160.3"/><rect class="cls-6" x="1722.11" y="1605.95" width="100.19" height="160.3"/><rect class="cls-6" x="1849.25" y="1605.95" width="100.19" height="160.3"/><rect class="cls-6" x="1976.97" y="1605.92" width="100.19" height="160.3"/><rect class="cls-6" x="2105.49" y="1606.22" width="100.19" height="160.3"/><rect class="cls-6" x="1720.12" y="1382.35" width="100.19" height="160.3"/><rect class="cls-6" x="1847.26" y="1382.35" width="100.19" height="160.3"/><rect class="cls-6" x="1974.98" y="1382.32" width="100.19" height="160.3"/><rect class="cls-6" x="2103.5" y="1382.62" width="100.19" height="160.3"/><rect class="cls-6" x="1720.18" y="1164.53" width="100.19" height="160.3"/><rect class="cls-6" x="1847.32" y="1164.53" width="100.19" height="160.3"/><rect class="cls-6" x="1975.04" y="1164.5" width="100.19" height="160.3"/><rect class="cls-6" x="2103.56" y="1164.81" width="100.19" height="160.3"/></g><g id="Layer_4" data-name="Layer 4"><path class="cls-7" d="M2330.33,704.84H1769.47c-437.32,0-430.72,150.72-430.72,150.72V1624s144.75,112.33,275.07,0c52.32-45.1-24.21-384.16,204.9-387,384.81-4.69,402.19-34.87,424.1,151.36s70.43,234.74,70.43,234.74,38.71,70,190.52,23,13.51-828.39,13.51-828.39S2503,704.84,2330.33,704.84Z"/><rect class="cls-8" x="1432.65" y="900.21" width="54.85" height="31.99"/><rect class="cls-8" x="1487.5" y="932.21" width="36.42" height="46.27"/><rect class="cls-8" x="1397.84" y="932.21" width="34.81" height="46.27"/><rect class="cls-8" x="1432.65" y="978.48" width="54.85" height="36.96"/><path class="cls-9" d="M1630.71,1550.08a210.81,210.81,0,0,1-10.87-3.38c-.21,0-.42,0-.63,0a16.35,16.35,0,0,1-9.14-2.76h-.22a16.56,16.56,0,0,1-6.58-1.34l-.48,0a16.31,16.31,0,0,1-7.19-1.65l-.51,0a16.27,16.27,0,0,1-6.88-1.5l-3.31,0a16.16,16.16,0,0,1-6.86-1.46l-1.72,0a15.37,15.37,0,0,1-3.61-.4,16.76,16.76,0,0,1-5-.82,15.39,15.39,0,0,1-1.67,0c-2-.15-3.91-.37-5.88-.39a16.81,16.81,0,0,1-6.39-1.32,18.12,18.12,0,0,1-3.52-.36c-1.92,0-3.85.09-5.78.11a15.76,15.76,0,0,1-2.58-.19c-.28,0-.56.05-.85.05a16.76,16.76,0,0,1-3.57-.39,9.1,9.1,0,0,1-1.28,0c-3.51-.27-7-.25-10.54-.24a16.64,16.64,0,0,1-4.4-.6,19.8,19.8,0,0,1-4.08.17l.21,0c-3.62-.12-7.31.25-10.95.25a17,17,0,0,1-4-.5,16.1,16.1,0,0,1-3.52.4,16.46,16.46,0,0,1-4.43-.61,80.08,80.08,0,0,0-15.17,1.27,15.73,15.73,0,0,1-3.18-.32,15,15,0,0,1-2.75.27c-.19,0-.37,0-.55,0a15.89,15.89,0,0,1-4.73.74,17.26,17.26,0,0,1-3.48-.36,16.18,16.18,0,0,1-4.74.74,16.79,16.79,0,0,1-3.36-.34,16.35,16.35,0,0,1-5.9,1.16,16.66,16.66,0,0,1-4-.51,16.42,16.42,0,0,1-6.48,1.38,16.72,16.72,0,0,1-4.34-.59,85.45,85.45,0,0,0-14.6,2.17,12.74,12.74,0,0,0-6.66.68,15.76,15.76,0,0,1-3.93.52h-.33a24.07,24.07,0,0,1-5.72.64,19.58,19.58,0,0,1-2-.15,15.53,15.53,0,0,1-2.22.8,45.43,45.43,0,0,1-11.81,1.65c-.65,0-1.29-.07-1.92-.14a26.23,26.23,0,0,1-5,1.34,17.13,17.13,0,0,1-4.74.6,17.75,17.75,0,0,1-5.49.39,13.3,13.3,0,0,1-3.47,1.29,533.77,533.77,0,0,0-16.79,2.49h-.07c-.52.22-1.05.42-1.6.6a42.23,42.23,0,0,1-10.57,2V1624s144.75,112.33,275.07,0c12.28-10.59,17.46-37.41,21.17-72.26A16.32,16.32,0,0,1,1630.71,1550.08Z"/><path class="cls-9" d="M2501.07,837.4a59.73,59.73,0,0,1,10.53,0,15.82,15.82,0,0,1,2.38-.21h.18c.39,0,.78-.06,1.18-.06a14.57,14.57,0,0,0,3.79.05l.39,0,.37,0c.24,0,.47,0,.7,0-2.08-12.56-3.31-19.51-3.31-19.51s-14.33-112.88-187-112.88H1769.47c-341.83,0-412.43,92.08-427,132.3.76-.06,1.53-.1,2.3-.1h.22c.73,0,1.46-.09,2.19-.09a33.06,33.06,0,0,1,3.62.21c.52,0,1,0,1.56,0,.93,0,1.84,0,2.75.12s1.72-.12,2.58-.12l.57,0a30.09,30.09,0,0,1,5.52-.52,32.65,32.65,0,0,1,6.56.66,30.09,30.09,0,0,1,4.83-.41,31.61,31.61,0,0,1,3.67.21c.26,0,.53,0,.8,0h89.66l.71,0a30,30,0,0,1,3.67-.23h117.48a33.16,33.16,0,0,1,5,.39c3.43-.07,6.87-.1,10.3-.12a30.24,30.24,0,0,1,3.56-.22,33.39,33.39,0,0,1,3.63.21l13.71,0a32.32,32.32,0,0,1,3.44.18c1.29-.14,2.58-.27,3.88-.34,17.33-1,30.55,13.93,32.77,29.86l25-3.36a94.5,94.5,0,0,1,48.38,10.82c2.39.77,4.72,1.64,7,2.59l24.34-10.27a95.12,95.12,0,0,1,50.07-2.24,92.83,92.83,0,0,1,39.26,10.6,125.43,125.43,0,0,1,39.94-19.13c32.54-5.11,43.13-7.34,75.67.11a46.24,46.24,0,0,1,5.08,1.48,333.62,333.62,0,0,1,32.52,13.74c.63.3,1.26.61,1.88.94a99.93,99.93,0,0,1,11.32,7.07c4.93-1.45,9.86-2.89,14.81-4.28a300.48,300.48,0,0,1,31.24-7c21.85-3.68,44.12-7.2,66.34-7.89,21.5-.66,43.62,2.45,64.57,6.43l.7-.23a93.82,93.82,0,0,1,29.18-9.72l-.36-2.71a17.42,17.42,0,0,1,17-17h4.49a15.54,15.54,0,0,0,7.57.12H2289a16.91,16.91,0,0,1,3.67.41,16.22,16.22,0,0,1,2.41-.21,16.77,16.77,0,0,1,3.35.34,18.07,18.07,0,0,1,7-.09,15.51,15.51,0,0,1,2.63-.25,16.69,16.69,0,0,1,3.35.34,15.43,15.43,0,0,1,3.11-.34,125,125,0,0,1,14.48.42,16,16,0,0,1,4-.54,17.05,17.05,0,0,1,3.76.43,15.36,15.36,0,0,1,2.71-.26,16.82,16.82,0,0,1,3.66.41,15.89,15.89,0,0,1,3.82-.5,17.32,17.32,0,0,1,2.92.27,15.72,15.72,0,0,1,3-.31,16.21,16.21,0,0,1,3.22.32,15.59,15.59,0,0,1,3.12-.33h.25a15.68,15.68,0,0,1,5.82.18,15.25,15.25,0,0,1,2.7-.26,16.65,16.65,0,0,1,3.11.3c.37,0,.74,0,1.11,0a16.08,16.08,0,0,1,3,.27,15.63,15.63,0,0,1,3.67-.46,16.5,16.5,0,0,1,4.32.59,15.63,15.63,0,0,1,4.3-.62,16.6,16.6,0,0,1,4,.5,15.23,15.23,0,0,1,2.86-.28c.39,0,.77,0,1.16,0s.82,0,1.23,0a16.09,16.09,0,0,1,2.72.25,15.58,15.58,0,0,1,3.33-.36,15.91,15.91,0,0,1,2.79.25,14.72,14.72,0,0,1,1.76-.11,14.93,14.93,0,0,1,1.65.09,13.68,13.68,0,0,1,2.31-.2,16.46,16.46,0,0,1,3.17.31,15.73,15.73,0,0,1,1.8-.2,14.63,14.63,0,0,1,2.47-.22,16.54,16.54,0,0,1,3,.28,14.69,14.69,0,0,1,2-.15,16.65,16.65,0,0,1,3.11.3,15.69,15.69,0,0,1,3-.3,16.54,16.54,0,0,1,4.14.54h.23a15,15,0,0,1,5.65-.39A15.69,15.69,0,0,1,2443,837a16.33,16.33,0,0,1,3.08.3l.6,0a18.16,18.16,0,0,1,1.82.1,15,15,0,0,1,2.91-.29,16.81,16.81,0,0,1,3.59.39,14.49,14.49,0,0,1,2.94-.27c3.75,0,7.5.38,11.25.45a16.09,16.09,0,0,1,4.14-.57,16.6,16.6,0,0,1,3.56.38,15.3,15.3,0,0,1,2.78-.26,16.43,16.43,0,0,1,4.65.66,16.06,16.06,0,0,1,5.23-.9,16.44,16.44,0,0,1,3.89.48,15.48,15.48,0,0,1,3.78-.48A16.42,16.42,0,0,1,2501.07,837.4Z"/><path class="cls-9" d="M2560.65,1549a16.41,16.41,0,0,1-6.16-1.19c-5.49,1-11.32.12-16.88.12a16.19,16.19,0,0,0-14.35-.88c-9.17,0-18.35-.09-27.52-.1a16.34,16.34,0,0,1-10.3-3.61,20,20,0,0,1-9.08.31,8.43,8.43,0,0,1-1.4-.35c-.21,0-.51,0-1,.07-1.53.08-3.06.06-4.59.17-3,.2-6.09.52-9.13.84-6.77.7-13.53,1.4-20.35,1.47a16,16,0,0,1-4.25-.54,16.47,16.47,0,0,1-2,.14c-10.74,0-21.49.13-32.23.14a16.41,16.41,0,0,1-12-5.13c-3.92.23-7.84.45-11.76.48a15,15,0,0,1-2.13-.13c-.52.11-1.06.2-1.59.27-1,.13-9.06,0-7.57-.21-2,.16-3.93.47-5.91.65-4.71.44-9.5.76-14.23,1a14.34,14.34,0,0,1-3.55-.24,15.89,15.89,0,0,1-3.88.51,17.08,17.08,0,0,1-3.07-.31,16.17,16.17,0,0,1-5.42,1,16.54,16.54,0,0,1-3.1-.3,16,16,0,0,1-5.39,1,16.66,16.66,0,0,1-3.49-.37,16.25,16.25,0,0,1-5.92,1.16,16.55,16.55,0,0,1-3.63-.4,16.17,16.17,0,0,1-6.32,1.33,16.36,16.36,0,0,0-12.73,1.33,16.94,16.94,0,0,1-3.3-.33,20.08,20.08,0,0,1-7.57,1.79,14.13,14.13,0,0,1-2.85-.22c19.09,56.57,37.2,74.69,37.2,74.69s38.71,70,190.52,23c29.07-9,47.5-45,58.3-97.2A13.52,13.52,0,0,1,2560.65,1549Z"/></g><g id="Layer_6" data-name="Layer 6"><circle class="cls-8" cx="1947.51" cy="1125.78" r="35.32"/><ellipse class="cls-10" cx="2395.51" cy="919.87" rx="19.21" ry="19.14"/><ellipse class="cls-11" cx="2353.12" cy="959.85" rx="19.21" ry="19.14"/><ellipse class="cls-12" cx="2395.51" cy="998.13" rx="19.21" ry="19.14"/><ellipse class="cls-13" cx="2441.33" cy="959.85" rx="19.21" ry="19.14"/><circle class="cls-14" cx="1660.63" cy="1158.96" r="74.55"/><circle class="cls-8" cx="1661.29" cy="1158.94" r="51.03"/><circle class="cls-14" cx="2267.9" cy="1157.04" r="74.55"/><circle class="cls-8" cx="2268.56" cy="1157.02" r="51.03"/></g><g id="Layer_5" data-name="Layer 5"><polygon points="1634.53 823.4 1634.53 978.48 2243.32 978.48 2243.32 805.27 1634.53 804.17 1634.53 823.4"/><path d="M1634.53,710.46v93.71l608.79,1.42V704.84S1627.73,703.65,1634.53,710.46Z"/><line class="cls-15" x1="1342.15" y1="836.86" x2="1636.68" y2="836.86"/><line class="cls-15" x1="2520.57" y1="837.05" x2="2242.76" y2="837.05"/><polygon class="cls-16" points="1634.51 974.62 1634.51 980.55 2243.29 980.55 2243.29 973.92 1634.51 973.88 1634.51 974.62"/></g><path class="cls-17" d="M2276.23,1549s122.72-19.6,285.78.29"/><path class="cls-17" d="M1635,1551.82c-117-40.19-296.22,0-296.22,0"/><line class="cls-15" x1="2560.76" y1="1555.05" x2="2563.25" y2="1543.03"/><path class="cls-18" d="M1219.4,759.58a59.35,59.35,0,0,0-59.47-59.22,60.33,60.33,0,0,0-11.24,1.06A99.27,99.27,0,0,0,982.8,648.85a85.23,85.23,0,0,0-19.5-2.26,84.17,84.17,0,0,0-78.62,53.84,59.22,59.22,0,0,0,2.86,118.38h273.2A59.35,59.35,0,0,0,1219.4,759.58Z"/><path class="cls-18" d="M3089.5,1339.21a59.53,59.53,0,0,0-70.71-58.16,99.26,99.26,0,0,0-165.89-52.57,84.4,84.4,0,0,0-98.12,51.58,59.21,59.21,0,0,0,2.86,118.37h273.21A59.33,59.33,0,0,0,3089.5,1339.21Z"/><path class="cls-18" d="M2800.39,434.34a59.35,59.35,0,0,0-59.47-59.22,60.52,60.52,0,0,0-11.25,1.06,99.25,99.25,0,0,0-165.88-52.57,84.46,84.46,0,0,0-98.12,51.58,59.21,59.21,0,0,0,2.85,118.37h273.21A59.34,59.34,0,0,0,2800.39,434.34Z"/><path class="cls-19" d="M1341.8,2132c-8.36,0-15.42-1.73-21-5.14a40,40,0,0,1-16.74-20.5c-3.22-8.8-4.31-19-3.26-30.29a123.8,123.8,0,0,1,8.14-33.49c15.69-39.73,32-80,48.55-119.55a126.36,126.36,0,0,1,17.09-28.3A182.81,182.81,0,0,1,1400,1868a141.91,141.91,0,0,1,28.62-19.48c9.67-4.91,19.08-7.41,28-7.41h121.76l-4.85,14.72q-4.24,12.87-8.49,25.83l-2.49,7.58-8,.14c-35.33.59-71.26,1.28-106.78,2.05-2.2,0-5.08,1.07-8.78,3.11a73.82,73.82,0,0,0-11.14,7.68,109.54,109.54,0,0,0-10.35,9.7c-3.15,3.37-5.22,6.28-6.16,8.66-13.94,35.25-27.79,71-41.15,106.25-5.85,15.45-7.15,27.26-4,36.12,2.84,7.75,8.42,11.54,17,11.54a32.72,32.72,0,0,0,3.62-.21c16.47-1.83,33.11-3.59,49.48-5.23a42.42,42.42,0,0,0,14.54-4.14,60.39,60.39,0,0,0,12-7.67,48.59,48.59,0,0,0,8.48-9,32.71,32.71,0,0,0,4.48-8.22q6.09-18.27,12.18-36.37a3.24,3.24,0,0,0,0-2.86c-.27-.37-.75-.8-2.15-.8l-.43,0c-16.54,1.06-33.41,2.2-50.16,3.4l-17.34,1.24,6-16.3c3.52-9.53,7.08-19.13,10.65-28.7l2.59-6.92,7.38-.36c33.81-1.64,68.1-3.11,101.89-4.39l15.84-.6-4.72,15.13c-7.69,24.69-15.35,49.51-22.78,73.77-1.8,5.89-5.36,13.08-10.86,22a134.11,134.11,0,0,1-21.75,26,161,161,0,0,1-32.8,23.36c-12.86,7-27.65,11.66-44,13.72-24.15,3-48.59,6.34-72.64,9.82A77.07,77.07,0,0,1,1341.8,2132Z"/><path class="cls-20" d="M1341.8,2120.76c-6.26,0-11.34-1.17-15.11-3.48a28.68,28.68,0,0,1-12.1-14.89c-2.61-7.12-3.5-15.66-2.6-25.31a112.18,112.18,0,0,1,7.41-30.41c15.67-39.7,32-79.85,48.46-119.35a115.35,115.35,0,0,1,15.61-25.75,171.53,171.53,0,0,1,23.8-25.12,130.17,130.17,0,0,1,26.38-18c8.09-4.12,15.8-6.2,22.91-6.2h106.25q-4.24,12.88-8.5,25.85c-35.47.59-71.39,1.29-106.83,2.06-4.12.09-8.55,1.52-14,4.49a84.24,84.24,0,0,0-12.86,8.86,119.48,119.48,0,0,0-11.42,10.7c-4.16,4.45-6.9,8.44-8.38,12.18-14,35.32-27.84,71.12-41.21,106.4-6.84,18.06-8.16,32.41-4,43.9,4.5,12.23,14.29,18.94,27.59,18.94h0a43.27,43.27,0,0,0,4.87-.28c16.39-1.82,33-3.57,49.35-5.21a53.87,53.87,0,0,0,18.37-5.24,71.86,71.86,0,0,0,14.21-9.13,59.49,59.49,0,0,0,10.44-11.13,43.42,43.42,0,0,0,6-11.16q6.07-18.26,12.16-36.34c2.17-6.43,0-10.89-1.52-13a13.33,13.33,0,0,0-11.25-5.46l-1.16,0c-16.64,1.07-33.48,2.21-50.23,3.41,3.51-9.51,7.07-19.11,10.64-28.67,33.78-1.63,67.94-3.1,101.77-4.38-7.74,24.85-15.39,49.63-22.79,73.81-1.5,4.89-4.76,11.41-9.69,19.37a122.43,122.43,0,0,1-19.92,23.79,149.55,149.55,0,0,1-30.49,21.68c-11.6,6.36-25,10.53-40,12.41-24.22,3.05-48.73,6.36-72.84,9.85A65.07,65.07,0,0,1,1341.8,2120.76Z"/><path class="cls-21" d="M1556.79,2043.84c31.27-53.88,64.35-108.91,101.13-168.25l.1-.17c4.07-7,9.26-11.51,15.44-13.33s14.33-2.78,24.16-2.82h.66c9.86,0,17.54.88,22.84,2.6s8.48,6.17,9.11,13.1h0c7.09,53.21,14.45,108.15,21.88,163.32l1.65,12.24-12.35.46c-7.92.29-15.86.6-23.74.93l-10.26.44s-4.67-35.87-6.34-48.74A2.73,2.73,0,0,0,1698,2001h-.26c-23.15.81-46.73,1.77-70.06,2.84A5.51,5.51,0,0,0,1623,2007l-.13.24c-9.3,15.52-18.58,31.18-27.6,46.55l-3,5.09-5.89.41q-9.54.67-19.12,1.38l-21.18,1.56Zm92.23-81.62-.53,1.08a1,1,0,0,0-.1.27,1.62,1.62,0,0,0,.12,1.34c.19.25.53.52,1.53.52h.17c14.49-.48,29.06-.92,43.33-1.31,2.32-.06,2.64-1.44,2.76-2a1.38,1.38,0,0,0,0-.22v-1c-.67-7.92-5.25-61.64-5.25-61.64v-.25a15.31,15.31,0,0,0-.42-3.67c-.05-.17-.31-.92-1.63-.93h-.13c-1.32,0-3.48,3.71-4.19,4.92-12.19,21.26-24.2,42.41-35.67,62.79Z"/><path class="cls-22" d="M1566.49,2049.47c31.2-53.77,64.35-108.92,101-168l.2-.32c2.62-4.56,5.54-7.27,8.94-8.27,5.19-1.53,12.27-2.32,21-2.36h.63c10.78,0,16.48,1.11,19.36,2,.47.15,1.13.37,1.41,3.45l0,.24,0,.23c7.07,53,14.42,107.93,21.88,163.34-7.94.3-15.9.61-23.8,1q-2.51-19.26-5-38.55a13.87,13.87,0,0,0-14.19-12.41h-.61c-23.28.81-46.91,1.77-70.23,2.85a16.64,16.64,0,0,0-13.87,8.82c-9.37,15.65-18.66,31.32-27.64,46.63Zm72-91.17a12.54,12.54,0,0,0,11.59,18.34h.54c14.42-.47,29-.91,43.26-1.3a13.64,13.64,0,0,0,13.39-10.67,12.63,12.63,0,0,0,.3-2.59l.11-.47s-3.63-42.54-5.37-63a23.71,23.71,0,0,0-1-6.8,12.72,12.72,0,0,0-12.28-8.56h-.18c-7.73.09-11.83,7.11-13.8,10.47-12.3,21.47-24.32,42.63-35.76,63l-.73,1.3Z"/><path class="cls-23" d="M1774.68,2036.49q12.42-73.92,24.81-147.28a34.29,34.29,0,0,1,5.74-14.62,32.54,32.54,0,0,1,10.21-9.31,43.47,43.47,0,0,1,13.06-4.92,72.23,72.23,0,0,1,14.36-1.48h.28a106,106,0,0,1,18.41,1.3,19.42,19.42,0,0,1,11.32,5.92c2.84,3.11,4.78,7.63,5.93,13.84a228,228,0,0,1,2.82,25c2.13,27.41,6.32,81.13,6.79,87.23.13.73.28,1.91.42,3.42a37.86,37.86,0,0,0,.75,4.75c.36,1.61.72,3,1.1,4.21.56,1.8,1,1.83,1.24,1.84l.14,0a4.88,4.88,0,0,0,1.47-1.83,24.44,24.44,0,0,0,1.89-4.23c.53-1.58,1.07-3.12,1.6-4.61a24.35,24.35,0,0,0,.82-2.61l.06-.3.07-.29q11.15-44.36,22.26-88.65a194.41,194.41,0,0,1,7.22-24.37c2.33-6,5.22-10.6,8.57-13.57a25.11,25.11,0,0,1,12.67-5.79,117.3,117.3,0,0,1,19.3-1.3h.16c11.27,0,20.56,2.24,27.63,6.64s10.69,12.07,10.56,22.77l-2,160.25-11.25-.18c-7.31-.12-14.68-.22-22-.3l-11.57-.13s4.36-101.39,6.29-146.32a20.22,20.22,0,0,0-.19-2.25c-.2-1.71-1.17-1.71-1.59-1.72a2.64,2.64,0,0,0-2.12.92,15.2,15.2,0,0,0-1.34,2,10.63,10.63,0,0,0-.81,2.38c-.34,1.23-.68,2.55-1,4l-1,4.2c-.33,1.31-.62,2.4-.85,3.15-1.39,4.51-2.72,9.19-4,13.85-1.3,4.87-3.14,11.33-5.46,19.22-2.2,7.44-5,17.14-8.89,30.55-3.88,13.25-8.77,29.2-14.57,47.45l0,.17a33.15,33.15,0,0,1-3.59,8.07,26.68,26.68,0,0,1-6.5,7.11,32.91,32.91,0,0,1-10.73,5.16,59.2,59.2,0,0,1-16.56,2.06H1886a46.35,46.35,0,0,1-14-1.73,28,28,0,0,1-8.93-4.53,16,16,0,0,1-4.83-6.14,30.82,30.82,0,0,1-1.9-6l-.1-.49,0-.49q-6.72-62.54-13.43-125.17l-.14-.35-.2-1.19c0-.32-.13-.79-.22-1.48-.24-1.67-.72-2.61-1.43-2.78h-1.39c-.51,0-1.15.33-1.37,1.86,0,0-13.61,97.85-19.47,140l-1.32,9.44-9.53.22c-7.22.17-14.47.35-21.68.55l-13.62.38Z"/><path class="cls-24" d="M1785.74,2038.35q12.42-73.92,24.8-147.28a23.39,23.39,0,0,1,3.75-9.89,21.68,21.68,0,0,1,6.76-6.19,32.21,32.21,0,0,1,9.72-3.65,60.75,60.75,0,0,1,12.1-1.25h.27a96.27,96.27,0,0,1,16.39,1.11c3,.57,4.35,1.67,5.06,2.45s2.21,3,3.19,8.33a221,221,0,0,1,2.66,23.77l6.84,87.9.1.55c0,.07.12.7.29,2.5a49.43,49.43,0,0,0,1,6.11c.42,1.92.87,3.61,1.36,5.16,2.79,9,9.79,9.67,11.87,9.67,4.7,0,8.52-2.52,11.37-7.45A35.88,35.88,0,0,0,1906,2004c.53-1.57,1-3,1.56-4.5a30.42,30.42,0,0,0,1.26-4.23q11.15-44.36,22.26-88.66a184.37,184.37,0,0,1,6.79-23c2.11-5.45,4.19-8,5.57-9.26a14,14,0,0,1,7.13-3.13,106.76,106.76,0,0,1,17.4-1.14h.16c9.14,0,16.44,1.67,21.72,5,1.49.92,5.38,3.32,5.26,13.11l-1.85,149c-7.33-.11-14.71-.21-22.07-.3q2.89-67.36,5.79-134.76a26,26,0,0,0-.25-4c-.82-6.85-6-11.62-12.7-11.63a13.79,13.79,0,0,0-10.93,5.16,26.86,26.86,0,0,0-2.28,3.34,20.26,20.26,0,0,0-1.9,5c-.36,1.31-.72,2.72-1.1,4.22l-1,4.22c-.38,1.54-.6,2.27-.68,2.51-1.44,4.71-2.81,9.5-4.08,14.3s-3.08,11.11-5.38,18.95c-2.22,7.46-5.05,17.19-8.91,30.6-3.84,13.11-8.72,29-14.5,47.24l-.1.31a21.8,21.8,0,0,1-2.41,5.4,15.61,15.61,0,0,1-3.81,4.1,22.66,22.66,0,0,1-7.08,3.28,49.55,49.55,0,0,1-13.4,1.58H1886c-5.65,0-8.81-.64-10.46-1.18a16.75,16.75,0,0,1-5.37-2.6,5.4,5.4,0,0,1-1.55-1.8,19.84,19.84,0,0,1-1.22-3.81q-6.72-62.54-13.43-125.16l-.16-1.53-.26-.66c0-.25-.11-.64-.19-1.21-1.27-9.06-7.32-11.48-9.87-12.1l-1.33-.33h-2.76c-5.21,0-11.32,3.64-12.42,11.52,0,0-13.61,97.86-19.47,140C1800.23,2038,1793,2038.15,1785.74,2038.35Z"/><path class="cls-25" d="M2062.57,2050c-7.29-.23-14.65-.44-22-.62l-10.87-.29-.91-190.1,39.07.09,6.67,191.28Z"/><path class="cls-26" d="M2062.92,2038.75c-7.32-.22-14.69-.43-22.06-.62l-.81-168,17,0Z"/><path class="cls-27" d="M2248.2,2059.2c-.62,0-1.26,0-1.9-.07-9.45-.65-19-1.29-28.42-1.88a22.75,22.75,0,0,1-8.09-2.3,45.3,45.3,0,0,1-8.41-5.16,47.73,47.73,0,0,1-7.18-6.85,29.76,29.76,0,0,1-4.69-7.37l-.1-.23-.09-.24c-16.67-44-33.8-88.6-52.36-136.33l-.06-.15c-.48-1.1-1.32-2.38-2.67-2.4h-.11a1.46,1.46,0,0,0-1.19.47,2.42,2.42,0,0,0-.44,1.94q5.73,70.75,11.48,141.87l1,12.67-12.7-.57c-7.28-.33-14.6-.65-21.89-.94l-10.21-.42-7.93-152.8a73.09,73.09,0,0,1,1-17.92,24.22,24.22,0,0,1,5.87-12.15,26,26,0,0,1,11.87-6.91c5-1.49,11.1-2.22,18.69-2.22h.41c11.28,0,19.76,1.91,25.21,5.53a31.38,31.38,0,0,1,12,15l0,.08c19.34,47.69,37.24,92.46,54.69,136.81h0c.31.69,1.26,2.81,3.38,2.93h.16a1.42,1.42,0,0,0,1.21-.46c.15-.18.56-.65.36-2.21-6.31-46.81-12.9-95.46-19.59-144.57l-1.74-12.79,39.06.22,1.53,9.35c8.79,53.91,17.47,107.61,25.81,159.61a26.11,26.11,0,0,1-.62,11.16,30.38,30.38,0,0,1-4.92,10A23.66,23.66,0,0,1,2258,2057,22.37,22.37,0,0,1,2248.2,2059.2Z"/><path class="cls-28" d="M2248.2,2048c-.37,0-.76,0-1.14,0-9.45-.66-19-1.29-28.47-1.89a11.67,11.67,0,0,1-4-1.25,33.38,33.38,0,0,1-6.33-3.9,36.73,36.73,0,0,1-5.48-5.21,18.76,18.76,0,0,1-2.95-4.58c-16.68-44-33.83-88.68-52.42-136.5l-.13-.32c-2.44-5.74-7.26-9.21-12.88-9.28h-.18a12.74,12.74,0,0,0-9.5,4.08,13.45,13.45,0,0,0-3.37,10.44q5.73,70.77,11.48,141.87c-7.3-.33-14.64-.64-22-.94l-7.39-142.59a61.83,61.83,0,0,1,.77-15.11,13.56,13.56,0,0,1,3.08-6.74,15.2,15.2,0,0,1,6.89-3.83,56.32,56.32,0,0,1,15.48-1.74h.38c11.85,0,17,2.31,19,3.66a20,20,0,0,1,7.78,9.77l0,.12c19.35,47.71,37.24,92.45,54.68,136.78l.09.25.11.24c3.67,8.17,10.31,9.4,13,9.54.26,0,.52,0,.78,0a12.6,12.6,0,0,0,9.64-4.29,13.47,13.47,0,0,0,3-11.08c-6.31-46.81-12.89-95.4-19.59-144.59l16.67.09c8.74,53.59,17.42,107.25,25.81,159.58a14.86,14.86,0,0,1-.35,6.4,19,19,0,0,1-3.09,6.3,12.37,12.37,0,0,1-4.6,3.72A11.08,11.08,0,0,1,2248.2,2048Z"/><path class="cls-29" d="M2484.38,2130.44a111.15,111.15,0,0,1-15.57-1.2c-24.07-3.4-48.52-6.62-72.67-9.57a94.1,94.1,0,0,1-37.23-12.79,138.13,138.13,0,0,1-30-24.13,131.4,131.4,0,0,1-20.83-29.64,110.13,110.13,0,0,1-10.47-30.13c-6.19-35.32-12.53-71.18-18.83-106.59a65.07,65.07,0,0,1,.7-25.59,76.4,76.4,0,0,1,9.64-24.41,58.86,58.86,0,0,1,17-18.21,40.11,40.11,0,0,1,23.45-7.12h121.76l2.35,8.08c2.85,9.78,5.7,19.63,8.52,29.42l4.23,14.69-15.28-.38c-33.22-.82-66.66-1.57-99.39-2.22h-.31a11.75,11.75,0,0,0-6.74,2.72,28.47,28.47,0,0,0-6.62,7.07,42.55,42.55,0,0,0-4.64,9,14.74,14.74,0,0,0-1,8.11c7,33.57,14.08,67.29,20.88,100.23,2.91,14.13,8.7,26.06,17.18,35.46s18.28,14.82,28.77,15.88c16.42,1.65,33.07,3.41,49.47,5.23a37.18,37.18,0,0,0,4.12.24,22,22,0,0,0,8.74-1.6,19.2,19.2,0,0,0,7.93-5.93,17.23,17.23,0,0,0,3.36-8.29,22,22,0,0,0-.38-8.29q-4.95-19.23-9.91-38.28c-.95-3.67-3.29-4.27-5-4.4-19.53-1.57-39.42-3.08-59.15-4.49l-8.28-.59-1.85-8.1q-3.26-14.25-6.5-28.43l-3.32-14.42,14.79.72c34,1.65,68.45,3.51,102.29,5.51l7.92.47,2.19,7.61c8.77,30.39,17.53,61.23,26,91.66,1.84,6.57,2.69,14.57,2.53,23.78a56.39,56.39,0,0,1-6.53,25.67c-4.23,7.82-11,14.1-20.26,18.72C2501.37,2128.91,2493.62,2130.44,2484.38,2130.44Z"/><path class="cls-30" d="M2484.38,2119.23a102.41,102.41,0,0,1-14-1.08c-24.13-3.41-48.65-6.64-72.87-9.61a82.79,82.79,0,0,1-32.83-11.27,127,127,0,0,1-27.54-22.16,120.08,120.08,0,0,1-19-27.07,98.75,98.75,0,0,1-9.41-27c-6.2-35.3-12.54-71.17-18.84-106.62a54.25,54.25,0,0,1,.61-21.27,65.33,65.33,0,0,1,8.24-20.9,47.9,47.9,0,0,1,13.8-14.88,28.83,28.83,0,0,1,17.06-5.11h113.35c2.84,9.77,5.69,19.61,8.51,29.4-33.14-.82-66.55-1.57-99.5-2.23h-.38c-4.58,0-9.13,1.66-13.53,4.93a40,40,0,0,0-9.23,9.81,54.36,54.36,0,0,0-5.85,11.33,25.67,25.67,0,0,0-1.5,14.32c7,33.42,14,67.13,20.87,100.2,3.33,16.11,10,29.8,19.84,40.7,10.54,11.62,22.64,18.18,36,19.52,16.44,1.65,33,3.41,49.36,5.22a47.69,47.69,0,0,0,5.36.31,33.11,33.11,0,0,0,13.19-2.52,30.17,30.17,0,0,0,12.44-9.49,28.49,28.49,0,0,0,5.52-13.59,33.21,33.21,0,0,0-.64-12.51q-5-19.26-9.92-38.31c-1.93-7.4-7.51-12.17-14.92-12.76-19.56-1.57-39.47-3.08-59.24-4.49q-3.26-14.26-6.51-28.45c34,1.66,68.34,3.51,102.18,5.51,8.76,30.35,17.51,61.14,26,91.57,1.54,5.52,2.25,12.44,2.11,20.57a45.3,45.3,0,0,1-5.21,20.59c-3.11,5.76-8.16,10.35-15.39,14C2498,2118.09,2491.87,2119.23,2484.38,2119.23Z"/><path class="cls-31" d="M1737.47,2285.49c10.39-62.86,21.21-126.39,33.06-194.23l1.15-6.57,36.23-.08-1.32,9.11c-3.46,23.8-6.91,47.7-10.27,71-.2,1.46.23,2,.39,2.14a2.13,2.13,0,0,0,1.68.61h.2c21.08-.93,42.53-1.64,63.74-2.13a2.73,2.73,0,0,0,2.94-2.83c2.08-23.63,6.88-78,6.88-78l36.24,0-.45,8.38q-4.9,90.6-9.83,181.4l-.4,7.28-7.29.24c-8.85.29-17.81.67-26.64,1.14l-9.14.49.8-9.13q3.07-35.14,6.16-70.15a2.43,2.43,0,0,0-.49-2,2.5,2.5,0,0,0-1.86-.65h-.17c-21.87.74-44,1.84-65.74,3.26a3.19,3.19,0,0,0-3.18,3.06c-3.65,25.61-7.29,51.36-10.83,76.54l-.85,6-6,.76c-8.62,1.09-17.36,2.28-26,3.54l-10.78,1.59Z"/><path class="cls-32" d="M1745.31,2286.79c10.38-62.74,21.21-126.39,33-194.16l20.36-.05c-3.51,24.15-7,48-10.27,71a10.21,10.21,0,0,0,2.25,8.48,10,10,0,0,0,7.69,3.35h.56c21-.93,42.43-1.65,63.57-2.13a10.62,10.62,0,0,0,10.67-10.09q3.12-35.43,6.24-70.76l20.56,0q-4.89,90.6-9.83,181.4c-8.9.29-17.88.67-26.8,1.15q3.09-35.14,6.17-70.15a10,10,0,0,0-10.28-11.34h-.45c-21.92.75-44.12,1.85-66,3.27a11.1,11.1,0,0,0-10.54,9.88c-3.67,25.74-7.31,51.48-10.84,76.56C1762.76,2284.31,1754,2285.51,1745.31,2286.79Z"/><path class="cls-33" d="M2117.11,2298.81c-30.67-4.6-61.87-8.1-92.75-10.4l-2.87-.21-.31-.3c-.65,0-1.32.08-2,.08s-1,0-1.58-.05l-3.58-.25c-35.81-2.36-60.87-11.13-76.61-26.81l-.07-.06a42,42,0,0,1-9.2-13.55,63.35,63.35,0,0,1-4.53-19l0-.18c-.25-3.42-.35-8.6-.29-15.41s.32-16.86.79-30l.65-18.11c.18-4.91.42-9.11.71-12.48.28-3.19.56-6.15.84-8.78a45.25,45.25,0,0,1,1.28-6.93l0-.11c1.6-6.52,3.46-12.82,5.53-18.74a55.21,55.21,0,0,1,7.56-14.94,44.84,44.84,0,0,1,13.09-11.93,73.74,73.74,0,0,1,16.72-7.24l.19-.05a87.07,87.07,0,0,1,14.33-2.17c6.27-.55,13.72-.83,22.15-.83,8.85,0,16.23.09,21.92.28a76.74,76.74,0,0,1,14.44,1.66l.26.06a52.33,52.33,0,0,1,16.51,7.77,62.09,62.09,0,0,1,13.84,13.05,55,55,0,0,1,7.6,14.7c2.14,5.89,4.32,12.69,6.5,20.2l0,.13a156.78,156.78,0,0,1,3.72,20.23c1.09,8.53,2.24,18.49,3.43,29.62,1.34,12.52,2.38,23.24,3.11,31.88.71,8.41,1,14.33,1,17.6v0a66.86,66.86,0,0,1-2.74,19.94h0c6.45.7,13.07,1.47,19.68,2.28l6.2.76.73,6.21q1.36,11.59,2.73,23.26l1.21,10.33Zm-110.17-180.16c-4.33,0-8.71.18-13,.55a70.54,70.54,0,0,0-10.43,1.42,24.47,24.47,0,0,0-14.18,9.67c-3.52,4.89-5.22,11.84-5.23,21.26l0,62.93c0,9.85,2.2,17.71,6.58,23.37a27.91,27.91,0,0,0,17.46,10.55l.19,0,.18,0a30.38,30.38,0,0,0,4.19.54l6.8.57,7.52.63c2.46.21,4.84.38,7.09.51,4.73.25,8.45.38,11.37.38l1.89,0,10.94-.26c8.25-.93,13.76-3.84,16.83-8.89s4.13-12.92,3.32-23.51q-2.47-32.28-4.94-64.39c-.78-10.09-2.62-17.47-5.64-22.57s-7.55-8.44-13.92-10.23a59.13,59.13,0,0,0-11.21-2c-4-.33-8.66-.53-14-.59Z"/><path class="cls-34" d="M2118.29,2290.94c-30.88-4.63-62.23-8.14-93.34-10.46l-.83-.81-3.6.3c-.43,0-.87.06-1.31.06s-.7,0-1,0l-3.6-.24c-33.82-2.23-57.23-10.26-71.55-24.54l-.1-.09a34.2,34.2,0,0,1-7.46-11,55.08,55.08,0,0,1-3.9-16.54c-.24-3.22-.33-8.18-.28-14.76s.32-16.71.79-29.82l.65-18.1c.17-4.79.4-8.85.69-12.07s.55-6.06.82-8.63a35.45,35.45,0,0,1,1.06-5.74l0-.21c1.54-6.28,3.33-12.36,5.32-18.05a48,48,0,0,1,6.44-12.83,36.94,36.94,0,0,1,10.77-9.83,66.63,66.63,0,0,1,14.93-6.46,77.61,77.61,0,0,1,12.94-1.92c6-.53,13.27-.8,21.46-.8,8.76,0,16,.1,21.66.28a70.1,70.1,0,0,1,12.93,1.46,44.37,44.37,0,0,1,14,6.61,54.2,54.2,0,0,1,12.09,11.38,47.52,47.52,0,0,1,6.41,12.53c2.08,5.75,4.21,12.38,6.34,19.73a147.69,147.69,0,0,1,3.51,19.15c1.09,8.49,2.23,18.4,3.41,29.45,1.33,12.43,2.37,23.1,3.1,31.71.85,10.16,1,14.78,1,16.86v.09a58.92,58.92,0,0,1-2.39,17.58l-2.85,9.21,9.58,1c6.49.71,13.06,1.48,19.58,2.28Q2116.92,2279.29,2118.29,2290.94Zm-131.72-34.73a35.86,35.86,0,0,0,5.42.74l6.8.56,7.51.63c2.5.22,5,.4,7.31.53,4.89.26,8.75.39,11.81.39l2.08,0,11.28-.26.34,0c10.73-1.21,18.39-5.48,22.76-12.68,3.95-6.56,5.4-15.79,4.45-28.24q-2.48-32.27-4.94-64.39c-.87-11.33-3.07-19.84-6.73-26-4-6.83-10.27-11.49-18.6-13.84a67.57,67.57,0,0,0-12.7-2.25c-4.16-.35-9-.56-14.53-.62h-1.89c-4.55,0-9.15.19-13.69.57a76.7,76.7,0,0,0-11.75,1.65,32.63,32.63,0,0,0-18.67,12.75c-4.49,6.26-6.69,14.73-6.7,25.87l0,62.94c0,11.65,2.76,21.15,8.23,28.23A36.07,36.07,0,0,0,1986.57,2256.21Z"/></g><g id="Layer_7" data-name="Layer 7"><line class="cls-15" x1="2915.42" y1="1335.51" x2="2915.4" y2="1327.16"/><path class="cls-36" d="M1017.82,1180.09s56.68-86.25,100.51-30.68,85.06,9.75,57.57,69.31c-12,26-.6,40.68-8.19,79.24-.52,2.66-21.42,33.69-21.87,36.3-7.94,46.29-9.65,84,26.72,76.15,68.18-14.63,22.3,120-27,83.59s-135.87-112-73.73-151.64c61.17-39-126.78-91.24-71.52-114S1017.82,1180.09,1017.82,1180.09Z"/><path class="cls-4" d="M2918.06,952.3s-239.39-42.09-155.61-77.2c84.76-35.53,38.08-178.33,38.08-178.33s-7.35-23.18-39.58-43S2775,596,2775,596s80.81,145.48,84.54,160.12C2859.51,756.16,2921.3,949.55,2918.06,952.3Z"/></g></svg>
